<?xml version="1.0" encoding="UTF-8" standalone="no"?>
<!DOCTYPE svg PUBLIC "-//W3C//DTD SVG 1.1//EN" "http://www.w3.org/Graphics/SVG/1.1/DTD/svg11.dtd">
<svg width="100%" height="100%" viewBox="0 0 1920 839" version="1.1" xmlns="http://www.w3.org/2000/svg" xmlns:xlink="http://www.w3.org/1999/xlink" xml:space="preserve" xmlns:serif="http://www.serif.com/" style="fill-rule:evenodd;clip-rule:evenodd;">
    <g id="Artboard1" transform="matrix(1,0,0,0.776329,0,0)">
        <rect x="0" y="0" width="1920" height="1080" style="fill:none;"/>
        <g>
            <g transform="matrix(2.3533,0,0,3.03131,18.6818,24.6768)">
                <path d="M800,5.099L800,334.901C800,337.715 797.715,340 794.901,340L5.099,340C2.285,340 0,337.715 0,334.901L0,5.099C0,2.285 2.285,0 5.099,0L794.901,0C797.715,0 800,2.285 800,5.099Z" style="fill:rgb(26,27,38);stroke:rgb(48,54,61);stroke-width:1px;"/>
            </g>
            <g transform="matrix(2.3533,0,0,3.03131,18.6818,24.6768)">
                <path d="M800,5.099L800,34.901C800,37.715 797.715,40 794.901,40L5.099,40C2.285,40 0,37.715 0,34.901L0,5.099C0,2.285 2.285,0 5.099,0L794.901,0C797.715,0 800,2.285 800,5.099Z" style="fill:rgb(22,27,34);stroke:rgb(48,54,61);stroke-width:1.02px;stroke-linejoin:round;stroke-miterlimit:2;"/>
            </g>
            <g transform="matrix(2.3533,0,0,3.03131,18.6818,24.6768)">
                <circle cx="20" cy="20" r="6" style="fill:rgb(255,95,86);"/>
            </g>
            <g transform="matrix(2.3533,0,0,3.03131,18.6818,24.6768)">
                <circle cx="40" cy="20" r="6" style="fill:rgb(255,189,46);"/>
            </g>
            <g transform="matrix(2.3533,0,0,3.03131,18.6818,24.6768)">
                <circle cx="60" cy="20" r="6" style="fill:rgb(39,201,63);"/>
            </g>
            <g transform="matrix(2.3533,0,0,3.03131,959.903,100.46)">
                <g transform="matrix(12,0,0,12,82.9189,0)">
                </g>
                <text x="-82.919px" y="0px" style="font-family:'ArialMT', 'Arial', sans-serif;font-size:12px;fill:rgb(139,148,158);">Oh My Posh Powermini <tspan x="45.571px 52.901px " y="0px 0px ">Th</tspan>eme</text>
            </g>
            <g transform="matrix(2.3533,0,0,3.03131,65.7477,252.025)">
                <text x="0px" y="0px" style="font-family:'MesloLGLDZNFM-Regular', 'MesloLGLDZ Nerd Font Mono', monospace;font-size:14px;fill:rgb(122,162,247);">  ~\Development\powermini</text>
            </g>
            <g transform="matrix(2.3533,0,0,3.03131,1854.25,252.025)">
                <text x="-134.859px" y="0px" style="font-family:'MesloLGLDZNFM-Regular', 'MesloLGLDZ Nerd Font Mono', monospace;font-size:14px;fill:rgb(122,162,247);">at  02:42:18 AM</text>
            </g>
            <g transform="matrix(2.3533,0,0,3.03131,65.7477,358.121)">
                <text x="0px" y="0px" style="font-family:'MesloLGLDZNFM-Regular', 'MesloLGLDZ Nerd Font Mono', monospace;font-size:14px;fill:rgb(158,206,106);">❯</text>
                <text x="16.857px" y="0px" style="font-family:'MesloLGLDZNFM-Regular', 'MesloLGLDZ Nerd Font Mono', monospace;font-size:14px;fill:white;">git status</text>
            </g>
            <g transform="matrix(2.3533,0,0,3.03131,65.7477,464.217)">
                <text x="0px" y="0px" style="font-family:'MesloLGLDZNFM-Regular', 'MesloLGLDZ Nerd Font Mono', monospace;font-size:14px;fill:rgb(115,122,162);">On branch main</text>
            </g>
            <g transform="matrix(2.3533,0,0,3.03131,65.7477,524.843)">
                <text x="0px" y="0px" style="font-family:'MesloLGLDZNFM-Regular', 'MesloLGLDZ Nerd Font Mono', monospace;font-size:14px;fill:rgb(115,122,162);">Your branch is up to date with &apos;origin/main&apos;.</text>
            </g>
            <g transform="matrix(2.3533,0,0,3.03131,65.7477,585.47)">
                <text x="0px" y="0px" style="font-family:'MesloLGLDZNFM-Regular', 'MesloLGLDZ Nerd Font Mono', monospace;font-size:14px;fill:rgb(115,122,162);">nothing to commit, working tree clean</text>
            </g>
            <g transform="matrix(2.3533,0,0,3.03131,65.9858,693.782)">
                <text x="0px" y="0px" style="font-family:'MesloLGLDZNFM-Regular', 'MesloLGLDZ Nerd Font Mono', monospace;font-size:14px;fill:rgb(158,206,106);">❯</text>
                <text x="16.857px" y="0px" style="font-family:'MesloLGLDZNFM-Regular', 'MesloLGLDZ Nerd Font Mono', monospace;font-size:14px;fill:white;">|</text>
            </g>
        </g>
    </g>
</svg>
